<?xml version="1.0" encoding="UTF-8" standalone="no"?>
<!DOCTYPE svg PUBLIC "-//W3C//DTD SVG 1.1//EN" "http://www.w3.org/Graphics/SVG/1.1/DTD/svg11.dtd">
<svg width="100%" height="100%" viewBox="0 0 1024 1024" version="1.1" xmlns="http://www.w3.org/2000/svg" xmlns:xlink="http://www.w3.org/1999/xlink" xml:space="preserve" xmlns:serif="http://www.serif.com/" style="fill-rule:evenodd;clip-rule:evenodd;stroke-linejoin:round;stroke-miterlimit:2;">
    <g>
        <g>
            <path d="M541.184,354.024L541.184,332.334L484.957,332.334C484.957,351.581 484.957,370.835 484.465,390.551C480.743,391.638 477.531,392.676 474.279,392.82C455.864,393.63 437.427,394.986 419.022,394.683C400.637,394.38 382.294,392.09 363.909,391.135C342.746,390.037 321.879,392.396 301.382,397.858C287.954,401.436 275.136,406.619 266.013,417.401C261.008,423.315 255.979,430.577 254.677,437.893C253.194,446.223 253.381,455.096 256.269,464.179C260.827,478.517 268.953,490.247 278.343,501.092C287.316,511.456 298.024,520.318 307.969,529.84C287.286,529.886 266.603,529.932 245.225,529.677C242.979,527.662 241.672,525.607 239.837,524.288C230.057,517.259 220.098,510.477 210.288,503.487C198.301,494.946 186.392,486.295 174.469,477.666C171.002,475.157 167.6,472.558 164.168,470C164.098,437.855 163.991,405.71 164.035,373.566C164.038,371.285 165.156,369.007 166.312,366.346C182.558,355.429 200.391,350 218.364,345.401C229.431,342.569 240.987,341.549 252.372,340.086C260.418,339.052 268.542,338.602 276.637,337.965C282.585,337.497 288.593,337.506 294.483,336.662C303.228,335.409 311.844,333.217 320.6,332.094C335.693,330.157 350.4,326.862 364.607,321.394C368.466,319.909 372.329,318.429 376.555,316.969C385.86,321.811 395.231,325.556 405.315,326.95C412.904,327.998 420.583,328.789 428.234,328.91C446.006,329.192 463.786,329 482.257,329C480.622,302.676 484.459,276.663 478.188,250.843C474.574,235.96 467.886,223.057 457.489,212.437C451.45,206.268 443.205,202.258 435.961,196.791C436.632,188.289 436.904,180.216 438.075,172.275C439.073,165.51 440.775,158.796 442.782,152.249C444.395,146.987 446.929,142.009 449.055,136.905C456.729,140.752 465.032,143.712 471.951,148.622C488.172,160.132 500.565,175.188 509.062,193.296C510.213,195.749 511.306,198.229 512.454,200.759C516.429,193.86 520.247,186.897 524.384,180.129C530.348,170.372 537.902,162.089 546.644,154.584C555.807,146.717 566.235,141.319 576.829,135.999C577.227,135.8 577.813,135.975 578.963,136.082C584.54,139.814 589.031,144.384 594.473,146.888C611.275,154.622 628.291,161.946 645.505,168.713C662.893,175.548 680.778,181.124 698.128,188.046C707.255,191.687 715.936,196.641 724.392,201.712C732.165,206.373 739.366,211.987 746.819,217.182C747.877,221.169 749.706,225.13 749.848,229.15C750.265,240.928 750.35,252.743 749.883,264.516C749.629,270.905 747.988,277.239 746.245,283.822C731.394,279.162 720.737,269.04 709.435,259.956C701.824,253.838 694.583,247.259 687.099,240.508C685.67,236.249 684.401,232.336 682.951,228.492C678.314,216.197 669.976,206.809 658.722,200.486C646.463,193.6 632.929,190.721 618.828,191.041C614.938,191.129 611.06,191.716 606.853,191.834C596.206,190.721 585.853,188.883 575.566,189.2C559.767,189.686 544.424,192.636 531.656,203.418C523.303,210.471 517.954,219.332 516.248,229.792C514.095,242.989 518.178,255.645 522.423,267.973C524.983,275.407 528.872,282.376 531.559,289.773C535.912,301.755 539.769,313.918 543.903,326.359C544.291,327.533 544.61,328.353 544.932,329.631C544.941,334.686 545.424,339.351 544.797,343.861C544.313,347.349 542.44,350.643 541.184,354.024Z" style="fill:rgb(213,240,132);fill-rule:nonzero;"/>
            <path d="M308.435,529.912C298.024,520.318 287.316,511.456 278.343,501.092C268.953,490.247 260.827,478.517 256.269,464.179C253.381,455.096 253.194,446.223 254.677,437.893C255.979,430.577 261.008,423.315 266.013,417.401C275.136,406.619 287.954,401.436 301.382,397.858C321.879,392.396 342.746,390.037 363.909,391.135C382.294,392.09 400.637,394.38 419.022,394.683C437.427,394.986 455.864,393.63 474.279,392.82C477.531,392.676 480.743,391.638 484.394,391.016C484.869,414.695 484.923,438.371 484.498,462.502C474.011,460.907 464.153,458.349 453.667,459.869C441.794,461.59 435.427,471.265 439.456,482.534C441.706,488.827 443.562,495.28 446.145,501.43C450.164,511.001 454.65,520.375 458.938,529.832C437.008,529.888 415.078,529.974 393.148,529.993C365.066,530.018 336.984,529.989 308.435,529.912Z" style="fill:rgb(171,220,168);fill-rule:nonzero;"/>
            <path d="M687.177,240.886C694.583,247.259 701.824,253.838 709.435,259.956C720.737,269.04 731.394,279.162 745.928,284.042C743.651,290.793 741.698,297.975 738.097,304.202C733.141,312.775 726.938,320.626 721.241,328.826C721.885,328.856 723.408,328.984 724.931,328.985C751.057,329.001 777.185,328.788 803.308,329.099C815.278,329.241 827.42,330.449 838.15,336.111C849.131,341.905 856.572,351.263 859.993,363.466C860.632,365.747 861.29,368.022 861.64,370.854C854.501,377.341 848.2,384.103 840.675,388.976C833.036,393.924 824.551,398.638 815.799,400.571C797.389,404.636 779.552,400.651 763.108,391.604C749.8,384.283 736.808,376.383 723.759,368.599C717.22,364.698 710.682,360.748 704.473,356.354C692.348,347.773 679.421,340.778 664.882,337.674C655.187,335.605 645.167,336.167 636.338,341.387C625.637,347.714 619.909,357.918 617.058,369.658C615.432,376.358 615.615,383.565 613.501,390.061C610.608,398.947 611.663,408.172 609.672,417.243C606.686,430.846 604.201,443.97 596.34,455.911C589.957,465.606 580.652,470.356 570.398,472.651C560.959,474.763 550.944,474.3 541.183,474.971C541.127,442.764 541.069,410.558 541.017,378.351C541.004,370.548 541.013,362.744 541.098,354.482C542.44,350.643 544.313,347.349 544.797,343.861C545.424,339.351 544.941,334.686 545.403,329.555C568.265,328.679 590.684,328.841 613.04,327.736C621.697,327.309 630.527,324.864 638.721,321.831C652.573,316.704 664.439,308.435 673.278,296.153C681.027,285.385 686.673,273.95 686.957,260.407C687.093,253.901 687.107,247.393 687.177,240.886Z" style="fill:rgb(172,220,168);fill-rule:nonzero;"/>
            <path d="M541.113,475.438C550.944,474.3 560.959,474.763 570.398,472.651C580.652,470.356 589.957,465.606 596.34,455.911C604.201,443.97 606.686,430.846 609.672,417.243C611.663,408.172 610.608,398.947 613.501,390.061C615.615,383.565 615.432,376.358 617.058,369.658C619.909,357.918 625.637,347.714 636.338,341.387C645.167,336.167 655.187,335.605 664.882,337.674C679.421,340.778 692.348,347.773 704.473,356.354C710.682,360.748 717.22,364.698 723.759,368.599C736.808,376.383 749.8,384.283 763.108,391.604C779.552,400.651 797.389,404.636 815.799,400.571C824.551,398.638 833.036,393.924 840.675,388.976C848.2,384.103 854.501,377.341 861.625,371.256C861.929,396.716 861.948,422.328 861.52,448.436C853.159,450.602 845.31,453.193 837.318,453.752C819.544,454.995 802.488,451.093 786.039,444.34C772.582,438.815 759.184,433.103 745.512,428.157C732.32,423.384 719.033,418.465 705.377,415.504C693.259,412.877 680.644,413.459 668.47,417.332C645.847,424.529 636.245,439.528 637.717,464.164C638.292,473.782 639.299,483.47 638.667,493.03C638.244,499.425 636.328,506.235 633.22,511.825C627.842,521.493 618.479,526.738 607.975,529.828C586.994,529.872 566.012,529.865 545.031,530.01C541.508,530.035 540.95,528.344 540.968,525.368C541.066,508.881 541.032,492.393 541.113,475.438Z" style="fill:rgb(212,240,132);fill-rule:nonzero;"/>
            <path d="M608.44,529.908C618.479,526.738 627.842,521.493 633.22,511.825C636.328,506.235 638.244,499.425 638.667,493.03C639.299,483.47 638.292,473.782 637.717,464.164C636.245,439.528 645.847,424.529 668.47,417.332C680.644,413.459 693.259,412.877 705.377,415.504C719.033,418.465 732.32,423.384 745.512,428.157C759.184,433.103 772.582,438.815 786.039,444.34C802.488,451.093 819.544,454.995 837.318,453.752C845.31,453.193 853.159,450.602 861.452,448.891C861.882,458.592 861.933,468.335 861.549,478.57C853.469,481.641 845.935,484.637 838.156,486.717C820.535,491.428 802.879,489.824 785.479,485.428C766.466,480.624 748.708,471.817 728.858,469.208C719.376,467.961 711.094,469.294 702.926,472.546C688.15,478.428 679.556,490.897 671.757,503.971C666.59,512.633 661.286,521.213 656.044,529.829C640.331,529.882 624.618,529.935 608.44,529.908Z" style="fill:rgb(148,209,188);fill-rule:nonzero;"/>
            <path d="M278.169,279.027C275.094,266.127 273.385,253.291 274.76,239.813C276.397,223.755 280.222,208.584 287.402,194.232C294.909,179.227 305.453,166.745 318.346,155.942C331.72,144.734 346.92,137.059 363.404,132.427C373.558,129.574 384.462,129.394 395.332,128.381C392.104,135.253 388.1,141.553 385.173,148.318C382.187,155.217 380.26,162.574 377.868,169.729C377,172.325 376.033,174.892 375.274,177.52C373.205,184.682 371.224,191.869 369.072,199.389C366.344,201.28 363.556,202.578 361.193,204.42C353.268,210.594 346.987,218.101 342.983,227.448C338.525,237.853 337.96,248.823 337.511,259.971C319.954,273.983 299.651,278.34 278.169,279.027Z" style="fill:rgb(172,220,169);fill-rule:nonzero;"/>
            <path d="M656.505,529.898C661.286,521.213 666.59,512.633 671.757,503.971C679.556,490.897 688.15,478.428 702.926,472.546C711.094,469.294 719.376,467.961 728.858,469.208C748.708,471.817 766.466,480.624 785.479,485.428C802.879,489.824 820.535,491.428 838.156,486.717C845.935,484.637 853.469,481.641 861.475,479.034C862.981,489.455 859.342,498.73 853.978,507.911C849.023,508.096 844.817,507.759 840.72,508.277C829.833,509.655 818.997,511.432 808.132,512.994C800.267,514.125 792.348,514.936 784.528,516.316C777.444,517.566 770.359,519.042 763.459,521.054C754.545,523.653 745.814,526.884 737.004,529.843C710.325,529.884 683.645,529.925 656.505,529.898Z" style="fill:rgb(212,239,133);fill-rule:nonzero;"/>
            <path d="M746.908,216.773C739.366,211.987 732.165,206.373 724.392,201.712C715.936,196.641 707.255,191.687 698.128,188.046C680.778,181.124 662.893,175.548 645.505,168.713C628.291,161.946 611.275,154.622 594.473,146.888C589.031,144.384 584.54,139.814 579.35,135.974C585.138,133.844 591.113,131.625 597.258,130.076C611.207,126.558 625.544,127.375 639.594,128.299C653.863,129.238 667.771,132.93 680.938,139.257C696.283,146.629 710.208,155.912 721.077,168.927C727.897,177.093 733.599,186.335 738.82,195.646C742.418,202.064 744.331,209.425 746.908,216.773Z" style="fill:rgb(148,210,189);fill-rule:nonzero;"/>
            <path d="M376.19,316.947C372.329,318.429 368.466,319.909 364.607,321.394C350.4,326.862 335.693,330.157 320.6,332.094C311.844,333.217 303.228,335.409 294.483,336.662C288.593,337.506 282.585,337.497 276.637,337.965C268.542,338.602 260.418,339.052 252.372,340.086C240.987,341.549 229.431,342.569 218.364,345.401C200.391,350 182.558,355.429 166.52,365.991C168.835,360.119 170.601,353.562 174.341,348.449C183.719,335.626 197.67,330.573 212.885,330.15C243.119,329.311 273.376,329.328 303.623,328.993C304.22,328.986 304.816,328.992 304.32,328.992C297.972,319.041 291.499,308.895 285.504,298.291C292.634,296.89 299.277,295.875 305.941,295.026C310.215,294.482 314.645,294.688 318.786,293.668C327.886,291.427 336.847,288.622 346.024,286.372C347.254,288.431 348.275,290.201 349.405,291.897C356.365,302.348 365.421,310.565 376.19,316.947Z" style="fill:rgb(195,231,149);fill-rule:nonzero;"/>
            <path d="M459.408,529.906C454.65,520.375 450.164,511.001 446.145,501.43C443.562,495.28 441.706,488.827 439.456,482.534C435.427,471.265 441.794,461.59 453.667,459.869C464.153,458.349 474.011,460.907 484.418,462.963C484.885,484.042 484.911,505.116 485.065,526.189C485.088,529.406 483.6,530.092 480.789,530.042C473.82,529.92 466.848,529.989 459.408,529.906Z" style="fill:rgb(213,240,132);fill-rule:nonzero;"/>
            <path d="M369.207,199.046C371.224,191.869 373.205,184.682 375.274,177.52C376.033,174.892 377,172.325 377.868,169.729C380.26,162.574 382.187,155.217 385.173,148.318C388.1,141.553 392.104,135.253 395.788,128.457C405.505,128.461 415.069,128.758 424.836,129.821C424.306,133.121 423.848,135.776 422.785,138.162C420.066,144.266 416.258,150.007 414.376,156.336C411.006,167.663 408.731,179.316 405.547,190.905C392.516,190.923 380.726,194.384 369.207,199.046Z" style="fill:rgb(212,239,133);fill-rule:nonzero;"/>
            <path d="M164.093,470.463C167.6,472.558 171.002,475.157 174.469,477.666C186.392,486.295 198.301,494.946 210.288,503.487C220.098,510.477 230.057,517.259 239.837,524.288C241.672,525.607 242.979,527.662 244.76,529.609C230.871,529.233 216.491,530.085 202.701,527.625C187.59,524.93 174.927,517.317 168.506,501.472C164.424,491.398 163.85,481.346 164.093,470.463Z" style="fill:rgb(195,231,149);fill-rule:nonzero;"/>
            <path d="M405.998,190.832C408.731,179.316 411.006,167.663 414.376,156.336C416.258,150.007 420.066,144.266 422.785,138.162C423.848,135.776 424.306,133.121 425.053,130.172C432.954,131.919 440.843,134.081 448.893,136.575C446.929,142.009 444.395,146.987 442.782,152.249C440.775,158.796 439.073,165.51 438.075,172.275C436.904,180.216 436.632,188.289 435.575,196.671C425.704,193.784 416.121,191.039 405.998,190.832Z" style="fill:rgb(195,231,149);fill-rule:nonzero;"/>
            <path d="M737.467,529.92C745.814,526.884 754.545,523.653 763.459,521.054C770.359,519.042 777.444,517.566 784.528,516.316C792.348,514.936 800.267,514.125 808.132,512.994C818.997,511.432 829.833,509.655 840.72,508.277C844.817,507.759 849.023,508.096 853.651,508.072C848.689,517.4 840.039,522.641 830.28,525.928C818.627,529.853 806.438,530.19 794.207,530.056C775.45,529.851 756.689,529.999 737.467,529.92Z" style="fill:rgb(195,231,149);fill-rule:nonzero;"/>
            <path d="M345.865,286.048C336.847,288.622 327.886,291.427 318.786,293.668C314.645,294.688 310.215,294.482 305.941,295.026C299.277,295.875 292.634,296.89 285.585,297.92C282.794,291.944 280.399,285.881 278.086,279.423C299.651,278.34 319.954,273.983 337.691,260.364C340.758,269.132 343.311,277.59 345.865,286.048Z" style="fill:rgb(212,239,133);fill-rule:nonzero;"/>
            <path d="M606.853,191.834C599.951,194.738 592.572,197.052 585.537,200.148C574.895,204.832 566.891,212.702 560.207,222.17C551.317,234.765 545.994,248.768 545.189,263.955C544.112,284.293 544.328,304.7 543.912,325.541C539.769,313.918 535.912,301.755 531.559,289.773C528.872,282.376 524.983,275.407 522.423,267.973C518.178,255.645 514.095,242.989 516.248,229.792C517.954,219.332 523.303,210.471 531.656,203.418C544.424,192.636 559.767,189.686 575.566,189.2C585.853,188.883 596.206,190.721 606.853,191.834Z" style="fill:rgb(172,220,169);fill-rule:nonzero;"/>
        </g>
        <g>
            <path d="M484.818,766.044C484.875,798.379 484.932,830.714 484.501,863.522C483.515,864.034 483.006,864.019 482.521,864.119C460.545,868.656 438.508,872.854 416.038,867.979C405.236,865.635 394.185,863.608 383.953,859.625C360.272,850.405 339.3,836.984 324.301,815.741C316.43,804.595 310.395,792.545 308.095,779C306.364,768.801 307.211,758.804 309.478,748.491C312.185,736.183 317.201,724.965 324.069,715.1C336.464,697.294 350.41,680.554 363.988,663.593C371.798,653.837 378.875,643.596 382.642,631.712C386.671,619.004 383.945,606.365 376.539,595.781C369.37,585.534 360.262,576.643 352.471,567.106C390.627,567.091 428.318,567.126 466.007,567.595C464.459,578.412 466.066,589.189 460.369,599.055C456.298,606.106 454.629,614.561 450.448,621.526C440.947,637.355 430.491,652.609 420.579,668.197C418.024,672.215 415.788,676.488 413.869,680.848C410.828,687.761 408.235,694.869 405.352,701.853C399.265,716.595 398.635,731.107 405.985,745.772C412.483,758.735 423.683,765.619 436.824,768.655C452.818,772.35 469.059,771.332 484.818,766.044Z" style="fill:rgb(170,220,169);fill-rule:nonzero;"/>
            <path d="M808.035,828.15C807.212,838.774 803.183,848.213 798.135,857.508C789.242,873.881 775.201,883.84 758.323,890.556C757.928,889.227 757.975,888.381 757.836,887.567C755.909,876.342 754.12,865.089 751.966,853.907C749.566,841.45 747.417,828.896 744.054,816.689C741.198,806.323 735.571,797.23 728.223,789.057C718.206,777.912 706.087,770.321 691.707,767.277C677.925,764.36 663.869,765.749 650.469,770.127C633.196,775.771 617.148,784.247 602.214,794.489C581.62,808.613 561.503,823.434 541.182,837.957C541.125,804.973 541.067,771.99 541.432,738.473C551.373,731.46 560.742,724.743 570.449,718.555C584.386,709.671 598.291,700.67 612.741,692.681C622.848,687.093 633.579,682.326 644.523,678.657C653.708,675.577 663.673,674.906 673.168,672.642C686.579,669.444 699.337,672.694 711.736,676.739C731.635,683.23 744.896,698.127 754.337,715.823C760.398,727.182 763.614,740.069 767.992,752.313C771.077,760.942 773.588,769.797 777.06,778.263C780.375,786.346 783.935,794.478 788.597,801.82C794.431,811.007 801.5,819.409 808.035,828.15Z" style="fill:rgb(171,220,169);fill-rule:nonzero;"/>
            <path d="M352.006,567.156C360.262,576.643 369.37,585.534 376.539,595.781C383.945,606.365 386.671,619.004 382.642,631.712C378.875,643.596 371.798,653.837 363.988,663.593C350.41,680.554 336.464,697.294 324.069,715.1C317.201,724.965 312.185,736.183 309.478,748.491C307.211,758.804 306.364,768.801 308.095,779C310.395,792.545 316.43,804.595 324.301,815.741C339.3,836.984 360.272,850.405 383.953,859.625C394.185,863.608 405.236,865.635 416.038,867.979C438.508,872.854 460.545,868.656 482.521,864.119C483.006,864.019 483.515,864.034 484.416,863.982C484.818,875.102 484.818,886.235 484.818,897.973C451.531,897.973 418.169,897.973 384.03,897.71C381.794,897.207 380.282,897.133 378.88,896.7C366.666,892.932 354.184,891.155 341.431,892.08C337.245,892.383 332.896,893.21 330.843,897.829C326.207,897.879 321.571,897.929 316.474,897.447C316.01,893.419 315.783,889.905 316.045,886.428C317.401,868.472 310.135,853.355 300.478,839.074C298.087,835.537 295.151,832.339 292.253,829.18C282.418,818.459 272.895,807.406 262.474,797.281C252.925,788.003 243.087,778.941 237.315,766.875C234.59,761.181 233.06,754.038 233.695,747.828C234.563,739.359 236.172,730.619 241.159,723.077C245.443,716.599 248.856,709.5 253.514,703.324C258.633,696.536 264.971,690.682 270.353,684.075C278.567,673.991 286.557,663.715 294.348,653.301C297.359,649.277 299.773,644.76 302.092,640.278C306.359,632.032 304.892,623.03 304.962,614.277C305.05,603.313 300.141,593.965 294.91,584.762C291.583,578.909 288.304,573.028 285.469,567.107C307.959,567.088 329.982,567.122 352.006,567.156Z" style="fill:rgb(213,240,132);fill-rule:nonzero;"/>
            <path d="M808.406,827.953C801.5,819.409 794.431,811.007 788.597,801.82C783.935,794.478 780.375,786.346 777.06,778.263C773.588,769.797 771.077,760.942 767.992,752.313C763.614,740.069 760.398,727.182 754.337,715.823C744.896,698.127 731.635,683.23 711.736,676.739C699.337,672.694 686.579,669.444 673.168,672.642C663.673,674.906 653.708,675.577 644.523,678.657C633.579,682.326 622.848,687.093 612.741,692.681C598.291,700.67 584.386,709.671 570.449,718.555C560.742,724.743 551.373,731.46 541.509,738.016C541.125,726.382 541.086,714.672 541.423,702.389C548.253,695.413 554.943,689.228 561.114,682.563C578.898,663.358 598.301,646.332 621.427,633.605C638.195,624.376 655.757,617.454 674.645,615.478C690.797,613.788 707.2,614.075 723.484,614.25C729.993,614.32 736.656,615.842 742.941,617.731C757.184,622.01 770.235,628.824 782.374,637.505C793.562,645.507 803.118,654.882 809.835,666.979C809.89,690.925 809.966,714.871 809.995,738.817C810.022,762.268 810.084,785.719 809.944,809.168C809.908,815.366 809.185,821.56 808.406,827.953Z" style="fill:rgb(212,240,132);fill-rule:nonzero;"/>
            <path d="M541.112,838.425C561.503,823.434 581.62,808.613 602.214,794.489C617.148,784.247 633.196,775.771 650.469,770.127C663.869,765.749 677.925,764.36 691.707,767.277C706.087,770.321 718.206,777.912 728.223,789.057C735.571,797.23 741.198,806.323 744.054,816.689C747.417,828.896 749.566,841.45 751.966,853.907C754.12,865.089 755.909,876.342 757.836,887.567C757.975,888.381 757.928,889.227 757.951,890.463C744.78,896.334 731.053,898.5 716.399,897.48C714.616,889 713.845,880.876 711.861,873.061C707.987,857.8 697.687,849.298 682.404,845.69C670.061,842.776 658.125,844.204 646.043,846.5C622.604,850.953 601.71,861.72 580.774,872.476C567.688,879.199 554.382,885.494 541.175,891.981C541.131,874.285 541.087,856.589 541.112,838.425Z" style="fill:rgb(212,240,132);fill-rule:nonzero;"/>
            <path d="M809.912,666.518C803.118,654.882 793.562,645.507 782.374,637.505C770.235,628.824 757.184,622.01 742.941,617.731C736.656,615.842 729.993,614.32 723.484,614.25C707.2,614.075 690.797,613.788 674.645,615.478C655.757,617.454 638.195,624.376 621.427,633.605C598.301,646.332 578.898,663.358 561.114,682.563C554.943,689.228 548.253,695.413 541.487,701.927C541.109,681.433 541.014,660.83 540.984,640.227C540.951,617.459 540.954,594.69 541.025,571.922C541.03,570.295 541.723,568.669 542.997,567.013C557.634,567.042 571.37,567.101 584.99,567.478C583.609,568.534 582.285,569.189 581.088,570.024C574.644,574.521 569.836,583.221 578.641,590.156C585.44,595.512 593.561,595.705 601.338,595.188C612.183,594.468 622.94,592.376 633.722,590.781C640.284,589.81 646.794,588.435 653.375,587.651C669.987,585.67 686.585,583.184 703.265,582.247C730.272,580.729 756.945,584.35 783.255,590.333C792.234,592.375 800.981,595.434 809.835,598.029C809.886,620.705 809.937,643.381 809.912,666.518Z" style="fill:rgb(148,209,189);fill-rule:nonzero;"/>
            <path d="M285.003,567.16C288.304,573.028 291.583,578.909 294.91,584.762C300.141,593.965 305.05,603.313 304.962,614.277C304.892,623.03 306.359,632.032 302.092,640.278C299.773,644.76 297.359,649.277 294.348,653.301C286.557,663.715 278.567,673.991 270.353,684.075C264.971,690.682 258.633,696.536 253.514,703.324C248.856,709.5 245.443,716.599 241.159,723.077C236.172,730.619 234.563,739.359 233.695,747.828C233.06,754.038 234.59,761.181 237.315,766.875C243.087,778.941 252.925,788.003 262.474,797.281C272.895,807.406 282.418,818.459 292.253,829.18C295.151,832.339 298.087,835.537 300.478,839.074C310.135,853.355 317.401,868.472 316.045,886.428C315.783,889.905 316.01,893.419 316.015,897.373C307.577,897.558 299.136,897.284 290.442,896.664C290.313,895.372 290.796,894.295 290.505,893.502C287.916,886.43 285.236,879.39 282.494,872.375C277.686,860.078 269.935,849.72 260.582,840.621C249.866,830.197 238.836,820.091 227.783,810.022C224.166,806.728 220.05,803.983 216.163,800.987C216.115,768.62 216.068,736.254 216.381,703.269C223.461,696.328 230.721,690.476 236.733,683.543C241.756,677.75 245.891,670.981 249.364,664.111C252.62,657.669 255.218,650.691 256.803,643.655C259.1,633.46 255.795,623.361 253.299,613.662C250.639,603.327 245.542,593.76 237.618,586.044C231.285,579.878 225.196,573.462 219.464,567.103C241.621,567.086 263.312,567.123 285.003,567.16Z" style="fill:rgb(194,231,148);fill-rule:nonzero;"/>
            <path d="M484.887,765.575C469.059,771.332 452.818,772.35 436.824,768.655C423.683,765.619 412.483,758.735 405.985,745.772C398.635,731.107 399.265,716.595 405.352,701.853C408.235,694.869 410.828,687.761 413.869,680.848C415.788,676.488 418.024,672.215 420.579,668.197C430.491,652.609 440.947,637.355 450.448,621.526C454.629,614.561 456.298,606.106 460.369,599.055C466.066,589.189 464.459,578.412 466.471,567.546C471.965,567.002 476.993,566.941 482.021,566.88C484.909,566.475 485.07,568.173 485.059,570.44C484.986,585.272 485.029,600.104 485.019,614.936C485.008,631.267 484.982,647.599 484.585,664.509C475.677,673.726 469.738,683.799 466.146,695.477C461.336,711.116 470.616,724.931 484.84,729.159C484.879,741.142 484.918,753.124 484.887,765.575Z" style="fill:rgb(212,240,132);fill-rule:nonzero;"/>
            <path d="M541.088,892.42C554.382,885.494 567.688,879.199 580.774,872.476C601.71,861.72 622.604,850.953 646.043,846.5C658.125,844.204 670.061,842.776 682.404,845.69C697.687,849.298 707.987,857.8 711.861,873.061C713.845,880.876 714.616,889 715.931,897.41C699.434,897.891 682.94,897.983 666.446,897.993C626.618,898.016 586.79,898 546.963,898L541,898C541,896.055 541,894.457 541.088,892.42Z" style="fill:rgb(146,209,190);fill-rule:nonzero;"/>
            <path d="M809.904,597.561C800.981,595.434 792.234,592.375 783.255,590.333C756.945,584.35 730.272,580.729 703.265,582.247C686.585,583.184 669.987,585.67 653.375,587.651C646.794,588.435 640.284,589.81 633.722,590.781C622.94,592.376 612.183,594.468 601.338,595.188C593.561,595.705 585.44,595.512 578.641,590.156C569.836,583.221 574.644,574.521 581.088,570.024C582.285,569.189 583.609,568.534 585.445,567.436C630.418,567.051 674.819,567.033 719.221,566.996C748.821,566.971 778.42,566.92 808.02,566.881C808.68,568.065 809.892,569.239 809.912,570.434C810.065,579.318 809.982,588.207 809.904,597.561Z" style="fill:rgb(212,239,133);fill-rule:nonzero;"/>
            <path d="M218.998,567.157C225.196,573.462 231.285,579.878 237.618,586.044C245.542,593.76 250.639,603.327 253.299,613.662C255.795,623.361 259.1,633.46 256.803,643.655C255.218,650.691 252.62,657.669 249.364,664.111C245.891,670.981 241.756,677.75 236.733,683.543C230.721,690.476 223.461,696.328 216.456,702.802C216.114,670.889 216.051,638.822 216.003,606.756C215.985,594.958 215.961,583.159 216.049,571.362C216.059,569.912 216.74,568.467 217.8,567.016C218.66,567.06 218.829,567.109 218.998,567.157Z" style="fill:rgb(213,240,132);fill-rule:nonzero;"/>
            <path d="M216.091,801.452C220.05,803.983 224.166,806.728 227.783,810.022C238.836,820.091 249.866,830.197 260.582,840.621C269.935,849.72 277.686,860.078 282.494,872.375C285.236,879.39 287.916,886.43 290.505,893.502C290.796,894.295 290.313,895.372 289.991,896.622C283.546,895.298 277.275,893.753 271.061,892.002C268.531,891.288 266.126,890.129 263.19,888.809C262.503,888.223 262.244,888.084 261.939,888.03C261.939,888.03 261.995,888.001 261.935,887.684C256.089,881.576 250.575,875.472 244.426,870.095C240.018,866.24 234.762,863.357 229.884,860.04C222.257,849.78 218.721,837.903 217.109,825.512C216.096,817.731 216.34,809.788 216.091,801.452Z" style="fill:rgb(213,240,132);fill-rule:nonzero;"/>
            <path d="M484.92,728.681C470.616,724.931 461.336,711.116 466.146,695.477C469.738,683.799 475.677,673.726 484.524,664.964C484.894,685.962 484.947,707.083 484.92,728.681Z" style="fill:rgb(148,210,189);fill-rule:nonzero;"/>
            <path d="M331.321,897.905C332.896,893.21 337.245,892.383 341.431,892.08C354.184,891.155 366.666,892.932 378.88,896.7C380.282,897.133 381.794,897.207 383.557,897.643C366.506,897.887 349.153,897.934 331.321,897.905Z" style="fill:rgb(148,210,189);fill-rule:nonzero;"/>
            <path d="M229.915,860.409C234.762,863.357 240.018,866.24 244.426,870.095C250.575,875.472 256.089,881.576 261.919,887.711C249.332,883.292 239.728,874.752 231.929,863.97C231.197,862.957 230.603,861.844 229.915,860.409Z" style="fill:rgb(172,220,169);fill-rule:nonzero;"/>
            <path d="M262.016,888.278C262.244,888.084 262.503,888.223 262.851,888.625C262.688,888.71 262.39,888.618 262.016,888.278Z" style="fill:rgb(172,220,169);fill-rule:nonzero;"/>
        </g>
    </g>
</svg>
